<svg id="Ñëîé_1" data-name="Ñëîé 1" xmlns="http://www.w3.org/2000/svg" xmlns:xlink="http://www.w3.org/1999/xlink" viewBox="0 0 394.93 431.46"><defs><style>.cls-1{fill:none;}.cls-2{fill:#01898c;}.cls-3{fill:#fff;}.cls-4{fill:#212b53;}.cls-5{fill:#00666a;}.cls-6{fill:url(#Áåçûìÿííûé_ãðàäèåíò_3);}.cls-7{fill:url(#Áåçûìÿííûé_ãðàäèåíò_3-2);}.cls-8{fill:url(#Áåçûìÿííûé_ãðàäèåíò_3-3);}.cls-9{fill:url(#Áåçûìÿííûé_ãðàäèåíò_3-4);}.cls-10{fill:#b0d9c8;}.cls-11{fill:#63c1c5;}.cls-12{fill:url(#Áåçûìÿííûé_ãðàäèåíò_3-5);}.cls-13{fill:url(#Áåçûìÿííûé_ãðàäèåíò_14);}.cls-14{fill:url(#Áåçûìÿííûé_ãðàäèåíò_3-6);}.cls-15{fill:url(#Áåçûìÿííûé_ãðàäèåíò_3-7);}.cls-16{fill:url(#Áåçûìÿííûé_ãðàäèåíò_3-8);}.cls-17{fill:#ffd247;}.cls-18{fill:#f4a086;}.cls-19{fill:#f8b68f;}.cls-20{fill:#cbb8cd;}.cls-21{fill:#a2d6d9;}.cls-22{fill:#043c5e;}.cls-23{fill:url(#Áåçûìÿííûé_ãðàäèåíò_17);}.cls-24{fill:#93cfc7;}.cls-25{fill:url(#Áåçûìÿííûé_ãðàäèåíò_3-9);}.cls-26{fill:url(#Áåçûìÿííûé_ãðàäèåíò_17-2);}.cls-27{fill:url(#Áåçûìÿííûé_ãðàäèåíò_3-10);}.cls-28{fill:url(#Áåçûìÿííûé_ãðàäèåíò_3-11);}.cls-29{fill:url(#Áåçûìÿííûé_ãðàäèåíò_3-12);}.cls-30{fill:url(#Áåçûìÿííûé_ãðàäèåíò_3-13);}.cls-31{fill:url(#Áåçûìÿííûé_ãðàäèåíò_3-14);}.cls-32{fill:url(#Áåçûìÿííûé_ãðàäèåíò_3-15);}.cls-33{fill:url(#Áåçûìÿííûé_ãðàäèåíò_3-16);}.cls-34{fill:url(#Áåçûìÿííûé_ãðàäèåíò_3-17);}.cls-35{fill:url(#Áåçûìÿííûé_ãðàäèåíò_3-18);}.cls-36{fill:url(#Áåçûìÿííûé_ãðàäèåíò_3-19);}.cls-37{fill:url(#Áåçûìÿííûé_ãðàäèåíò_3-20);}.cls-38{fill:url(#Áåçûìÿííûé_ãðàäèåíò_3-21);}.cls-39{fill:url(#Áåçûìÿííûé_ãðàäèåíò_3-22);}.cls-40{fill:url(#Áåçûìÿííûé_ãðàäèåíò_3-23);}.cls-41{fill:url(#Áåçûìÿííûé_ãðàäèåíò_3-24);}.cls-42{fill:url(#Áåçûìÿííûé_ãðàäèåíò_3-25);}.cls-43{fill:url(#Áåçûìÿííûé_ãðàäèåíò_3-26);}.cls-44{fill:url(#Áåçûìÿííûé_ãðàäèåíò_3-27);}.cls-45{fill:url(#Áåçûìÿííûé_ãðàäèåíò_3-28);}.cls-46{fill:url(#Áåçûìÿííûé_ãðàäèåíò_3-29);}.cls-47{fill:url(#Áåçûìÿííûé_ãðàäèåíò_3-30);}.cls-48{fill:url(#Áåçûìÿííûé_ãðàäèåíò_3-31);}.cls-49{fill:url(#Áåçûìÿííûé_ãðàäèåíò_3-32);}.cls-50{fill:url(#Áåçûìÿííûé_ãðàäèåíò_3-33);}.cls-51{fill:url(#Áåçûìÿííûé_ãðàäèåíò_3-34);}</style><linearGradient id="Áåçûìÿííûé_ãðàäèåíò_3" x1="96.93" y1="103.22" x2="160.65" y2="103.22" gradientUnits="userSpaceOnUse"><stop offset="0" stop-color="#e0f0eb"/><stop offset="1" stop-color="#c0e4ef"/></linearGradient><linearGradient id="Áåçûìÿííûé_ãðàäèåíò_3-2" x1="384.16" y1="206.6" x2="447.87" y2="206.6" xlink:href="#Áåçûìÿííûé_ãðàäèåíò_3"/><linearGradient id="Áåçûìÿííûé_ãðàäèåíò_3-3" x1="72.51" y1="184.86" x2="128.4" y2="184.86" xlink:href="#Áåçûìÿííûé_ãðàäèåíò_3"/><linearGradient id="Áåçûìÿííûé_ãðàäèåíò_3-4" x1="313.89" y1="46.29" x2="400.37" y2="46.29" gradientTransform="translate(-85.97)" xlink:href="#Áåçûìÿííûé_ãðàäèåíò_3"/><linearGradient id="Áåçûìÿííûé_ãðàäèåíò_3-5" x1="726.74" y1="17.95" x2="757.31" y2="17.95" gradientTransform="matrix(-0.98, 0.18, 0.18, 0.98, 1101.85, -88.65)" xlink:href="#Áåçûìÿííûé_ãðàäèåíò_3"/><linearGradient id="Áåçûìÿííûé_ãðàäèåíò_14" x1="737.87" y1="23.02" x2="757.31" y2="23.02" gradientTransform="matrix(-0.98, 0.18, 0.18, 0.98, 1101.85, -88.65)" gradientUnits="userSpaceOnUse"><stop offset="0.24" stop-color="#e0f0eb"/><stop offset="0.5" stop-color="#d9eeec"/><stop offset="0.88" stop-color="#c7e7ee"/><stop offset="1" stop-color="#c0e4ef"/></linearGradient><linearGradient id="Áåçûìÿííûé_ãðàäèåíò_3-6" x1="448.28" y1="110.59" x2="451.34" y2="110.59" xlink:href="#Áåçûìÿííûé_ãðàäèåíò_3"/><linearGradient id="Áåçûìÿííûé_ãðàäèåíò_3-7" x1="418.7" y1="144.07" x2="454.14" y2="144.07" xlink:href="#Áåçûìÿííûé_ãðàäèåíò_3"/><linearGradient id="Áåçûìÿííûé_ãðàäèåíò_3-8" x1="416.01" y1="173.29" x2="420.23" y2="173.29" xlink:href="#Áåçûìÿííûé_ãðàäèåíò_3"/><linearGradient id="Áåçûìÿííûé_ãðàäèåíò_17" x1="357.16" y1="53.87" x2="390.51" y2="53.87" gradientUnits="userSpaceOnUse"><stop offset="0.22" stop-color="#e0f0eb"/><stop offset="0.76" stop-color="#c0e4ef"/></linearGradient><linearGradient id="Áåçûìÿííûé_ãðàäèåíò_3-9" x1="261.83" y1="138.09" x2="302.69" y2="138.09" gradientTransform="matrix(-0.97, 0.25, 0.25, 0.97, 418.46, -161.09)" xlink:href="#Áåçûìÿííûé_ãðàäèåíò_3"/><linearGradient id="Áåçûìÿííûé_ãðàäèåíò_17-2" x1="262.09" y1="140.94" x2="310.23" y2="140.94" gradientTransform="matrix(-0.97, 0.25, 0.25, 0.97, 418.46, -161.09)" xlink:href="#Áåçûìÿííûé_ãðàäèåíò_17"/><linearGradient id="Áåçûìÿííûé_ãðàäèåíò_3-10" x1="165" y1="188.88" x2="170.36" y2="188.88" xlink:href="#Áåçûìÿííûé_ãðàäèåíò_3"/><linearGradient id="Áåçûìÿííûé_ãðàäèåíò_3-11" x1="209.54" y1="85.61" x2="216.29" y2="85.61" xlink:href="#Áåçûìÿííûé_ãðàäèåíò_3"/><linearGradient id="Áåçûìÿííûé_ãðàäèåíò_3-12" x1="200.79" y1="87.91" x2="207.36" y2="87.91" xlink:href="#Áåçûìÿííûé_ãðàäèåíò_3"/><linearGradient id="Áåçûìÿííûé_ãðàäèåíò_3-13" x1="171.37" y1="181.83" x2="175.42" y2="181.83" xlink:href="#Áåçûìÿííûé_ãðàäèåíò_3"/><linearGradient id="Áåçûìÿííûé_ãðàäèåíò_3-14" x1="175.57" y1="173.43" x2="178.06" y2="173.43" xlink:href="#Áåçûìÿííûé_ãðàäèåíò_3"/><linearGradient id="Áåçûìÿííûé_ãðàäèåíò_3-15" x1="176.99" y1="164.4" x2="178.39" y2="164.4" xlink:href="#Áåçûìÿííûé_ãðàäèåíò_3"/><linearGradient id="Áåçûìÿííûé_ãðàäèåíò_3-16" x1="172.4" y1="119.41" x2="175.06" y2="119.41" xlink:href="#Áåçûìÿííûé_ãðàäèåíò_3"/><linearGradient id="Áåçûìÿííûé_ãðàäèåíò_3-17" x1="171.5" y1="128.39" x2="172.98" y2="128.39" xlink:href="#Áåçûìÿííûé_ãðàäèåíò_3"/><linearGradient id="Áåçûìÿííûé_ãðàäèåíò_3-18" x1="175.16" y1="110.91" x2="178.88" y2="110.91" xlink:href="#Áåçûìÿííûé_ãðàäèåíò_3"/><linearGradient id="Áåçûìÿííûé_ãðàäèåíò_3-19" x1="185.44" y1="96.63" x2="190.92" y2="96.63" xlink:href="#Áåçûìÿííûé_ãðàäèåíò_3"/><linearGradient id="Áåçûìÿííûé_ãðàäèåíò_3-20" x1="173.21" y1="146.45" x2="175.69" y2="146.45" xlink:href="#Áåçûìÿííûé_ãðàäèåíò_3"/><linearGradient id="Áåçûìÿííûé_ãðàäèåíò_3-21" x1="179.57" y1="103.22" x2="184.22" y2="103.22" xlink:href="#Áåçûìÿííûé_ãðàäèåíò_3"/><linearGradient id="Áåçûìÿííûé_ãðàäèåíò_3-22" x1="106.16" y1="229.06" x2="110.86" y2="229.06" xlink:href="#Áåçûìÿííûé_ãðàäèåíò_3"/><linearGradient id="Áåçûìÿííûé_ãðàäèåíò_3-23" x1="111.86" y1="221.93" x2="116.61" y2="221.93" xlink:href="#Áåçûìÿííûé_ãðàäèåíò_3"/><linearGradient id="Áåçûìÿííûé_ãðàäèåíò_3-24" x1="117.7" y1="215.03" x2="122.76" y2="215.03" xlink:href="#Áåçûìÿííûé_ãðàäèåíò_3"/><linearGradient id="Áåçûìÿííûé_ãðàäèåíò_3-25" x1="100.45" y1="236.2" x2="105.16" y2="236.2" xlink:href="#Áåçûìÿííûé_ãðàäèåíò_3"/><linearGradient id="Áåçûìÿííûé_ãðàäèåíò_3-26" x1="175.35" y1="155.36" x2="177.65" y2="155.36" xlink:href="#Áåçûìÿííûé_ãðàäèåíò_3"/><linearGradient id="Áåçûìÿííûé_ãðàäèåíò_3-27" x1="124.14" y1="208.91" x2="129.82" y2="208.91" xlink:href="#Áåçûìÿííûé_ãðàäèåíò_3"/><linearGradient id="Áåçûìÿííûé_ãðàäèåíò_3-28" x1="94.79" y1="243.32" x2="99.46" y2="243.32" xlink:href="#Áåçûìÿííûé_ãðàäèåíò_3"/><linearGradient id="Áåçûìÿííûé_ãðàäèåíò_3-29" x1="157.11" y1="194.05" x2="163.31" y2="194.05" xlink:href="#Áåçûìÿííûé_ãðàäèåíò_3"/><linearGradient id="Áåçûìÿííûé_ãðàäèåíò_3-30" x1="171.68" y1="137.49" x2="173.65" y2="137.49" xlink:href="#Áåçûìÿííûé_ãðàäèåíò_3"/><linearGradient id="Áåçûìÿííûé_ãðàäèåíò_3-31" x1="131.61" y1="204.17" x2="137.91" y2="204.17" xlink:href="#Áåçûìÿííûé_ãðàäèåíò_3"/><linearGradient id="Áåçûìÿííûé_ãðàäèåíò_3-32" x1="192.6" y1="91.47" x2="198.77" y2="91.47" xlink:href="#Áåçûìÿííûé_ãðàäèåíò_3"/><linearGradient id="Áåçûìÿííûé_ãðàäèåíò_3-33" x1="148.59" y1="197.69" x2="155.1" y2="197.69" xlink:href="#Áåçûìÿííûé_ãðàäèåíò_3"/><linearGradient id="Áåçûìÿííûé_ãðàäèåíò_3-34" x1="139.95" y1="200.73" x2="146.49" y2="200.73" xlink:href="#Áåçûìÿííûé_ãðàäèåíò_3"/></defs><rect class="cls-1" width="394.93" height="431.46"/><path class="cls-2" d="M215.8,318.92S227,245.84,180.43,218.16C107.14,275.74,164,347.66,164,347.66Z" transform="translate(-67.99 -31.37)"/><path class="cls-3" d="M180.43,218.16l-.75.6,8.74,86.67L144.08,274c-.1.59-.19,1.19-.28,1.78l44.83,31.76,2.53,25,1.54-.85-5-49.86h0l24.3-20c-.16-.56-.33-1.13-.5-1.69l-24,19.78L181.3,218.7c-.29-.18-.57-.37-.87-.54Z" transform="translate(-67.99 -31.37)"/><path class="cls-4" d="M192.14,304.79S140.79,251.89,90.86,266c-14.54,60.67,50.66,87.17,50.66,87.17l64.47-.52Z" transform="translate(-67.99 -31.37)"/><path class="cls-5" d="M147.91,273.47l-2.13,32.63L92.05,265.66l-1.19.31c-.06.24-.1.47-.16.71l28.78,21.66-29.74,6.14c.05.29.11.57.16.85l.16.75,31.15-6.44,48,36.09-51.86,12.45c.53.44,1.07.87,1.6,1.29L170.85,327l34.05,25.62H206l-.44-1.54-58.22-43.82,2.16-33Z" transform="translate(-67.99 -31.37)"/><path class="cls-5" d="M188,339.82s-60.51-11.18-82.22,24c37.7,75.5,136.41,32.88,136.41,32.88Z" transform="translate(-67.99 -31.37)"/><path class="cls-4" d="M105.79,363.81l.45.86,82.87,8.79-31.9,32.26,1.85.44,32.12-32.48,32.37,3.43-1.74-1.81-63-6.69L137,341.9l-1.68.51,21.21,26L106.29,363c-.17.26-.34.51-.5.77Z" transform="translate(-67.99 -31.37)"/><path class="cls-6" d="M159.15,106.09a5.89,5.89,0,0,0-5.66-1,1.87,1.87,0,0,1-2.31-1.46,7.45,7.45,0,0,0-4.89-5.41c-3.29-1.33-5.38.7-6.58,2.8a.94.94,0,0,1-1.7-.17c-1-3.31-4.68-7.69-16.64-7.69-8,0-11.36,2.26-12.5,4.88a20.29,20.29,0,0,0,7.45,15.14h42.83S162.52,109,159.15,106.09Z" transform="translate(-67.99 -31.37)"/><path class="cls-7" d="M384.16,216.61h62.21s3.38-4.26,0-7.14a5.89,5.89,0,0,0-5.66-.95,1.86,1.86,0,0,1-2.3-1.46,7.46,7.46,0,0,0-4.9-5.41c-3.29-1.33-5.38.71-6.58,2.8a.94.94,0,0,1-1.69-.17c-1.05-3.31-4.69-7.69-16.65-7.69-15.21,0-13.52,8.08-12.16,11.44a.77.77,0,0,1-.88,1.06c-2.34-.5-6.7-1.15-8.65.38C384.16,211.63,384.16,216.61,384.16,216.61Z" transform="translate(-67.99 -31.37)"/><path class="cls-8" d="M72.65,186c-2,8.85,18.85,10,27.46,10.09a33.9,33.9,0,0,0,7.1-.67c7.28-1.48,23.21-5.36,21-10.63-2.89-6.8-11.55-2.06-11.55-2.06s1.09-5.13-13.65-8.52-14.68,7.9-14.68,7.9S75.21,174.9,72.65,186Z" transform="translate(-67.99 -31.37)"/><path class="cls-9" d="M227.92,54.05s61.38,6.08,81.41.66a6.7,6.7,0,0,0,4.59-8.86c-.81-1.94-2.64-3.58-6.7-4.72-4.72-1.33-8.83,1-11.45,3.26a2,2,0,0,1-3.18-1,7.44,7.44,0,0,0-4.93-4.79C283.15,37,276.77,40.74,273,43.45a1.45,1.45,0,0,1-2.29-1.3c.21-3.38-1.11-7.65-9.67-6.27s-11.89,6.24-13.27,9.77a2.31,2.31,0,0,1-3.56,1A7.7,7.7,0,0,0,235,46C227.92,50.25,227.92,54.05,227.92,54.05Z" transform="translate(-67.99 -31.37)"/><polygon class="cls-10" points="386.23 67.13 387.64 74.98 380.87 71.14 358.34 55.84 386.23 67.13"/><polygon class="cls-11" points="387.64 74.98 375.52 70.51 379.01 69.88 387.64 74.98"/><polygon class="cls-12" points="386.23 67.13 390.38 61.15 358.34 55.84 386.23 67.13"/><polygon class="cls-13" points="358.34 55.84 380.87 71.14 374.29 79.59 358.34 55.84"/><path class="cls-14" d="M450.84,112.39a.58.58,0,0,0,.22-.08.61.61,0,0,0,.19-.84,18,18,0,0,0-1.92-2.5.6.6,0,0,0-.85,0,.61.61,0,0,0,0,.86,15.51,15.51,0,0,1,1.78,2.32A.62.62,0,0,0,450.84,112.39Z" transform="translate(-67.99 -31.37)"/><path class="cls-15" d="M422.74,173.19a.62.62,0,0,1,.45-.74,17,17,0,0,0,5.37-2.41.61.61,0,0,1,.67,1,18.53,18.53,0,0,1-5.75,2.58h0A.61.61,0,0,1,422.74,173.19Zm8.58-4.53a.61.61,0,0,1,0-.86,21.53,21.53,0,0,0,3.69-4.65.61.61,0,0,1,1.05.61,22.91,22.91,0,0,1-3.9,4.92.58.58,0,0,1-.31.16A.62.62,0,0,1,431.32,168.66Zm5.61-7.95a.61.61,0,0,1-.35-.78l.09-.26a28,28,0,0,0,1.36-5.55.59.59,0,0,1,.68-.51.6.6,0,0,1,.52.68,29.7,29.7,0,0,1-1.41,5.79l-.11.28a.61.61,0,0,1-.78.35Zm2-9.55a.62.62,0,0,1-.59-.63,45,45,0,0,0-.24-6,.61.61,0,1,1,1.21-.13,45.91,45.91,0,0,1,.25,6.21.62.62,0,0,1-.5.58Zm-.63-9.78a.6.6,0,0,1-.7-.5c0-.16,0-.33-.08-.5a17.89,17.89,0,0,1-2.07.06.61.61,0,0,1,0-1.21c.61,0,1.22,0,1.83,0-.26-1.34-.56-2.74-.93-4.26a.61.61,0,0,1,.45-.73.62.62,0,0,1,.73.45c.38,1.58.69,3,1,4.41a17.7,17.7,0,0,0,2.82-.62.61.61,0,0,1,.36,1.16,20.94,20.94,0,0,1-3,.66c0,.14.06.29.08.44a.6.6,0,0,1-.49.69Zm6.06-3.51a.6.6,0,0,1,.24-.82,15.61,15.61,0,0,0,2.94-2.12,16.17,16.17,0,0,0,1.55-1.65.6.6,0,0,1,.94.76,15.63,15.63,0,0,1-1.67,1.78,17,17,0,0,1-3.18,2.29l-.18.06A.6.6,0,0,1,444.35,137.87ZM431.68,140a19,19,0,0,1-5.88-2.28.61.61,0,0,1,.62-1,17.84,17.84,0,0,0,5.51,2.13.61.61,0,0,1,0,1.19Zm19.58-8.9a.61.61,0,0,1-.27-.82,18.45,18.45,0,0,0,1.75-5.64.61.61,0,0,1,.69-.51.59.59,0,0,1,.51.68,19.47,19.47,0,0,1-1.87,6,.61.61,0,0,1-.81.27Zm-28.49,4.31a15.9,15.9,0,0,1-1.12-1.2,12.87,12.87,0,0,1-2.35-4.12.61.61,0,0,1,.38-.77.6.6,0,0,1,.77.38,11.9,11.9,0,0,0,2.12,3.73c.33.38.68.76,1,1.11a.6.6,0,0,1,0,.86.62.62,0,0,1-.33.17A.6.6,0,0,1,422.77,135.43Zm12.68-4a23,23,0,0,0-2.26-5.51.6.6,0,0,1,.2-.83.62.62,0,0,1,.84.21,23.77,23.77,0,0,1,2.39,5.79.62.62,0,0,1-.42.76h-.06A.62.62,0,0,1,435.45,131.39Zm18.11-9.7a.61.61,0,0,1-.63-.59,20.31,20.31,0,0,0-.3-2.69,18.3,18.3,0,0,0-.84-3.11.6.6,0,0,1,.36-.78.59.59,0,0,1,.77.36,19.36,19.36,0,0,1,.91,3.32,20.85,20.85,0,0,1,.31,2.86.62.62,0,0,1-.5.62Zm-34.28,5.22a.62.62,0,0,1-.58-.64,6.77,6.77,0,0,1,1.87-4.49,6.34,6.34,0,0,1,1.4-1.07.62.62,0,0,1,.83.24.6.6,0,0,1-.24.82,4.91,4.91,0,0,0-1.12.86,5.47,5.47,0,0,0-1.52,3.7.62.62,0,0,1-.5.57ZM431,123.18a8.73,8.73,0,0,0-5.2-2.11.59.59,0,0,1-.58-.63.61.61,0,0,1,.63-.58,9.84,9.84,0,0,1,6,2.42.6.6,0,0,1,.06.85.66.66,0,0,1-.35.2A.6.6,0,0,1,431,123.18Z" transform="translate(-67.99 -31.37)"/><path class="cls-16" d="M419.73,174.08a.61.61,0,0,0-.1-1.21,12.6,12.6,0,0,1-2.87-.36.61.61,0,0,0-.73.45.6.6,0,0,0,.45.73,14.36,14.36,0,0,0,3.14.4Z" transform="translate(-67.99 -31.37)"/><path class="cls-17" d="M357.31,218.32c-2.84-.37-12.05,5.55-20.85,14a106.16,106.16,0,0,0-28.85-11.51c.42-10.68-.25-22-4.55-25.07-8.73-6.26-37.74-2.79-41.34,0-2.31,1.78-4.68,12.84-4.82,25.34a106.59,106.59,0,0,0-28.47,11.65c-7.27-7.87-15.78-15.43-21-14.57-10.6,1.75-28.65,24.72-29.23,29.23-.37,2.83,5.51,12,14,20.77a106.17,106.17,0,0,0-12.58,28.88c-10.33-.32-20.95.46-23.92,4.6-6.26,8.73-2.78,37.74,0,41.34,1.65,2.14,11.34,4.35,22.74,4.76a106.08,106.08,0,0,0,11.92,30.73c-7,6.73-13,14.1-12.24,18.81,1.75,10.6,24.72,28.65,29.23,29.23,2.54.33,10.21-4.39,18.11-11.48a106.19,106.19,0,0,0,31.48,13.54c0,9.15,1,17.84,4.66,20.48,8.73,6.26,37.74,2.78,41.34,0,2-1.53,4-9.93,4.64-20.2a106.06,106.06,0,0,0,31.94-13.36c6.42,6.49,13.26,11.87,17.72,11.14,10.6-1.75,28.65-24.72,29.23-29.23.33-2.55-4.41-10.25-11.53-18.16a106.35,106.35,0,0,0,12.33-31.44c9.61.14,19-.8,21.74-4.66,6.26-8.73,2.78-37.73,0-41.33-1.66-2.16-11.43-4.37-22.91-4.77a105.89,105.89,0,0,0-13-29.54c7.47-7,14.3-15,13.48-20C384.79,237,361.82,218.9,357.31,218.32ZM316.62,358.67a47.81,47.81,0,1,1,0-67.61A47.82,47.82,0,0,1,316.62,358.67Z" transform="translate(-67.99 -31.37)"/><path class="cls-3" d="M330.45,372a68,68,0,1,1,0-96.23A68.12,68.12,0,0,1,330.45,372ZM234.9,276.42a67.08,67.08,0,1,0,94.86,0A67.16,67.16,0,0,0,234.9,276.42Z" transform="translate(-67.99 -31.37)"/><path class="cls-3" d="M336.7,241.65c-.36.28-.71.55-1.08.82a97.53,97.53,0,0,1-75.41,177h0c-.24.38-.49.75-.76,1.11a98.79,98.79,0,0,0,77.26-179Z" transform="translate(-67.99 -31.37)"/><path class="cls-3" d="M186.52,312.39a97.08,97.08,0,0,1,27.73-56.63c.31-.31.63-.6.95-.9-.41-.19-.81-.4-1.2-.61l-.65.62a98.31,98.31,0,0,0-28,57.1C185.71,312.1,186.12,312.24,186.52,312.39Z" transform="translate(-67.99 -31.37)"/><path class="cls-2" d="M372.16,76.24c-1.51-.19-6.42,3-11.11,7.49a57,57,0,0,0-15.38-6.14c.22-5.69-.14-11.72-2.43-13.36-4.65-3.34-20.11-1.49-22,0-1.23,1-2.5,6.84-2.57,13.51A56.41,56.41,0,0,0,303.46,84c-3.87-4.2-8.41-8.23-11.2-7.77-5.65.93-15.27,13.17-15.58,15.58-.19,1.51,2.94,6.39,7.44,11.07a56.63,56.63,0,0,0-6.7,15.4c-5.51-.18-11.17.24-12.75,2.45-3.34,4.65-1.49,20.11,0,22,.88,1.15,6,2.32,12.12,2.54a56.48,56.48,0,0,0,6.35,16.38c-3.71,3.59-6.94,7.52-6.52,10,.93,5.65,13.17,15.27,15.58,15.58,1.35.17,5.44-2.34,9.65-6.12a56.89,56.89,0,0,0,16.78,7.22c0,4.87.52,9.51,2.49,10.91,4.65,3.34,20.11,1.49,22,0,1.06-.81,2.14-5.29,2.47-10.76a56.86,56.86,0,0,0,17-7.12c3.42,3.45,7.07,6.32,9.45,5.93,5.65-.93,15.27-13.17,15.58-15.58.17-1.36-2.35-5.46-6.15-9.68a56.72,56.72,0,0,0,6.58-16.76c5.12.08,10.11-.42,11.58-2.48,3.34-4.65,1.49-20.11,0-22-.88-1.15-6.09-2.33-12.21-2.54a56.56,56.56,0,0,0-6.92-15.75c4-3.75,7.62-8,7.18-10.66C386.81,86.17,374.57,76.55,372.16,76.24Zm-21.69,74.82a25.49,25.49,0,1,1,0-36A25.49,25.49,0,0,1,350.47,151.06Z" transform="translate(-67.99 -31.37)"/><path class="cls-3" d="M358,158.3a36.49,36.49,0,1,1,0-51.61A36.53,36.53,0,0,1,358,158.3Zm-50.93-50.93a35.53,35.53,0,1,0,50.25,0A35.58,35.58,0,0,0,307.07,107.37Z" transform="translate(-67.99 -31.37)"/><path class="cls-3" d="M361.17,88.68l-.57.44a52,52,0,0,1-40.2,94.37h0c-.13.21-.27.4-.41.59a52.65,52.65,0,0,0,41.18-95.4Z" transform="translate(-67.99 -31.37)"/><path class="cls-3" d="M281.13,126.39A51.67,51.67,0,0,1,295.9,96.2l.51-.48c-.22-.1-.43-.21-.64-.32l-.34.32a52.42,52.42,0,0,0-15,30.44Z" transform="translate(-67.99 -31.37)"/><path class="cls-11" d="M241,118c-1.16-.15-4.94,2.27-8.54,5.75a43.28,43.28,0,0,0-11.81-4.71c.17-4.38-.11-9-1.87-10.27-3.57-2.56-15.45-1.14-16.92,0-1,.73-1.92,5.26-2,10.38a43.23,43.23,0,0,0-11.65,4.77c-3-3.22-6.46-6.32-8.61-6-4.34.72-11.73,10.12-12,12-.15,1.16,2.26,4.91,5.72,8.5a43.34,43.34,0,0,0-5.15,11.83c-4.23-.13-8.58.19-9.8,1.89-2.56,3.57-1.14,15.45,0,16.92.68.88,4.65,1.78,9.31,1.95a43.59,43.59,0,0,0,4.89,12.59c-2.85,2.75-5.33,5.77-5,7.7.71,4.34,10.12,11.73,12,12,1,.13,4.18-1.8,7.42-4.71a43.54,43.54,0,0,0,12.89,5.55c0,3.75.4,7.3,1.91,8.39,3.57,2.56,15.45,1.13,16.92,0,.82-.63,1.65-4.07,1.9-8.28a43.22,43.22,0,0,0,13.08-5.46c2.63,2.65,5.43,4.85,7.26,4.55,4.34-.71,11.73-10.12,12-12,.13-1-1.81-4.19-4.73-7.43a43.44,43.44,0,0,0,5.06-12.88c3.93.06,7.77-.32,8.9-1.9,2.56-3.57,1.14-15.45,0-16.93-.68-.88-4.68-1.79-9.38-1.95a43.79,43.79,0,0,0-5.32-12.09c3-2.88,5.85-6.15,5.52-8.19C252.29,125.65,242.89,118.26,241,118Zm-16.66,57.47a19.58,19.58,0,1,1,0-27.69A19.57,19.57,0,0,1,224.38,175.49Z" transform="translate(-67.99 -31.37)"/><path class="cls-3" d="M230.24,181.14a28.15,28.15,0,1,1,0-39.81A28.19,28.19,0,0,1,230.24,181.14ZM191.12,142a27.18,27.18,0,1,0,38.44,0A27.21,27.21,0,0,0,191.12,142Z" transform="translate(-67.99 -31.37)"/><path class="cls-3" d="M232.6,127.57l-.44.34a39.93,39.93,0,0,1-30.88,72.49h0l-.32.45A40.45,40.45,0,0,0,239.32,133,40.93,40.93,0,0,0,232.6,127.57Z" transform="translate(-67.99 -31.37)"/><path class="cls-3" d="M171.11,156.54a39.73,39.73,0,0,1,11.35-23.19l.39-.37c-.17-.07-.33-.16-.5-.24l-.26.25a40.22,40.22,0,0,0-11.49,23.38Z" transform="translate(-67.99 -31.37)"/><path class="cls-11" d="M299.83,273.68h13.79a32.63,32.63,0,0,1,29.8,19.39l13.12,29.59-27.3,13.07,8.75,5.91,4.85,44.9-100.15-1.68L238.9,273l60.4,1.33Z" transform="translate(-67.99 -31.37)"/><path class="cls-18" d="M288.87,251s1.26,13.49,3.14,19.19c1.48,4.05,7.82,3.5,7.82,3.5s-4.88,21.37-22.77,21.37-20.66-18.34-20.66-18.34l12.7-1.95-5.87-19.53Z" transform="translate(-67.99 -31.37)"/><path class="cls-19" d="M296.12,221.09,292,197l-41.75,18.62,2.53,14.13S256,264.1,278.26,260C302.3,255.58,297.19,220.78,296.12,221.09Z" transform="translate(-67.99 -31.37)"/><path class="cls-19" d="M356.54,322.67l5.64,20a40.46,40.46,0,0,1-11.37,40.58l-25.58,21.45-8.22-24,14.15-14.17a16.23,16.23,0,0,0,3.5-17.71l-5.42-13.06Z" transform="translate(-67.99 -31.37)"/><path class="cls-19" d="M220.08,327.86,217,337.58a51,51,0,0,0,11.48,50.67L244,404.69l8-38.42-22.14-38.41Z" transform="translate(-67.99 -31.37)"/><polygon class="cls-11" points="148.97 306.21 162.9 314.28 165.25 291.17 152.78 291.17 148.97 306.21"/><path class="cls-4" d="M252.84,231.19c26.82,5.65,41.94-24.22,41.94-24.22s-.82,6.24,1.71,15.46c9-11.71,3.13-26.47,3.13-26.47s-7.3-16.12-39.85-8.22c-37.95,9.21-44.27,61.35-44.27,61.35s-2.78,11.36,7,29.55a14.9,14.9,0,0,1-.94,16.11c-8.12,10.6-6.05,23.68-6.05,23.68a18.19,18.19,0,0,0,6.61,11.28c5.44,4.17,7.64,13.12,5.46,19.62-4.68,13.91-.69,21.83-.69,21.83s2.54,8.94,16.45,9.49c20.27.8,19.84-15.3,18-24.37a11.11,11.11,0,0,1,2.56-9.64,20.12,20.12,0,0,0,5.36-12.93c.14-4.92-1.78-10.12-3.93-14.36a16.18,16.18,0,0,1,1.34-17c5.18-7,11.86-21,8.12-30.09C268.47,257,257.66,251.83,252.84,231.19Z" transform="translate(-67.99 -31.37)"/><rect class="cls-3" x="170.91" y="318.6" width="101.46" height="60.72"/><rect class="cls-20" x="170.91" y="376.79" width="101.46" height="5.06"/><path class="cls-21" d="M285.57,374.75a4.06,4.06,0,1,0,4.06-4.06A4.06,4.06,0,0,0,285.57,374.75Z" transform="translate(-67.99 -31.37)"/><path class="cls-4" d="M413,394.49c13.07,39.29-160.31,56.86-160.31,56.86l-4.14-22.21S399.91,355.2,413,394.49Z" transform="translate(-67.99 -31.37)"/><polygon class="cls-19" points="174.21 419.9 149.35 421.38 144.64 416.21 147.03 406.83 170.53 403.44 174.21 419.9"/><path class="cls-22" d="M217.33,437.87,192,434.82s-9.8-2.57-18.55-1.15v23a61.33,61.33,0,0,0,13.07-.08l30.78-3.8-.35-.52A12.81,12.81,0,0,1,217.33,437.87Z" transform="translate(-67.99 -31.37)"/><path class="cls-11" d="M160.62,443.79c1.69-6.49,7.12-9.21,13-10.14v23C166,455.79,158.26,452.79,160.62,443.79Z" transform="translate(-67.99 -31.37)"/><line class="cls-19" x1="135.67" y1="408.18" x2="135.67" y2="418.06"/><rect class="cls-3" x="134.4" y="408.18" width="2.53" height="9.88"/><line class="cls-19" x1="129.42" y1="408.18" x2="129.42" y2="418.06"/><rect class="cls-3" x="128.16" y="408.18" width="2.53" height="9.88"/><polygon class="cls-11" points="180.55 394.39 185.19 423.07 174.22 425.18 168.74 397.77 180.55 394.39"/><path class="cls-19" d="M296.08,222.14c-1.12,2.91-.45,5.88,1.49,6.62s4.43-1,5.55-3.91.45-5.88-1.49-6.63S297.2,219.23,296.08,222.14Z" transform="translate(-67.99 -31.37)"/><path class="cls-4" d="M160.89,394.49c-13.07,39.29,160.31,56.86,160.31,56.86l4.14-22.21S174,355.2,160.89,394.49Z" transform="translate(-67.99 -31.37)"/><polygon class="cls-19" points="263.69 419.9 288.56 421.38 293.26 416.21 290.88 406.83 267.37 403.44 263.69 419.9"/><path class="cls-22" d="M400.47,433.69c-8.77-1.46-18.63,1.13-18.63,1.13l-25.3,3.05a12.81,12.81,0,0,1,.35,14.36l-.35.52,30.78,3.8a61.36,61.36,0,0,0,13.15.08Z" transform="translate(-67.99 -31.37)"/><path class="cls-11" d="M413.25,443.79c-1.69-6.49-7.11-9.21-13-10.14v23C407.88,455.79,415.61,452.79,413.25,443.79Z" transform="translate(-67.99 -31.37)"/><line class="cls-19" x1="302.23" y1="408.18" x2="302.23" y2="418.06"/><rect class="cls-3" x="300.97" y="408.18" width="2.53" height="9.88"/><line class="cls-19" x1="308.48" y1="408.18" x2="308.48" y2="418.06"/><rect class="cls-3" x="307.22" y="408.18" width="2.53" height="9.88"/><polygon class="cls-11" points="257.35 394.39 252.72 423.07 263.68 425.18 269.16 397.77 257.35 394.39"/><path class="cls-23" d="M360.84,41.92c-1.12,2.44-4.57,10.67-3.46,17.35a3.4,3.4,0,0,0,1.6,2.4c7.32,4.28,17.4,5.71,20.89,6.1a2.87,2.87,0,0,0,2.31-.79c2.11-2,6.79-7.77,8.31-19.56a2.54,2.54,0,0,0-.71-2.09c-6.52-6.52-24.75-5.85-27.89-4.47A2.09,2.09,0,0,0,360.84,41.92Z" transform="translate(-67.99 -31.37)"/><path class="cls-24" d="M390.49,47.42a2.41,2.41,0,0,0,0-.6l-16.87,5.79-11.14-12a5.72,5.72,0,0,0-.59.2,2.19,2.19,0,0,0-.48.31l7.83,8.4L357.19,55.4c0,.42,0,.85,0,1.27l12.88-6.23,3.24,3.48L378.87,52l5.9,11.86c.23-.34.47-.71.71-1.11L380,51.63l10.45-3.57Z" transform="translate(-67.99 -31.37)"/><polygon class="cls-25" points="201.63 44.08 177.91 40.51 167.11 42.23 159.93 46.16 201.63 44.08"/><polyline class="cls-10" points="201.63 44.08 161.24 48.27 159.93 46.16"/><polygon class="cls-11" points="162.54 54.99 162.61 55.05 166.28 60.2 201.54 44.11 162.54 54.99"/><polygon class="cls-26" points="154.25 54.24 157.93 48.02 201.37 44.1 167.02 55.69 154.25 54.24"/><path class="cls-27" d="M166.39,189.42a29.56,29.56,0,0,0,3-2.85.57.57,0,1,1,.85.77,29.74,29.74,0,0,1-3.09,3c-.4.33-.8.65-1.21,1a.56.56,0,0,1-.5.09.5.5,0,0,1-.29-.21.56.56,0,0,1,.11-.8C165.62,190.05,166,189.74,166.39,189.42Z" transform="translate(-67.99 -31.37)"/><path class="cls-28" d="M210,85.62c1.75-.41,3.6-.78,5.64-1.13a.57.57,0,0,1,.66.46.58.58,0,0,1-.47.66c-2,.35-3.84.72-5.57,1.12a.57.57,0,0,1-.29,0,.54.54,0,0,1-.39-.42A.56.56,0,0,1,210,85.62Z" transform="translate(-67.99 -31.37)"/><path class="cls-29" d="M201.2,89.34a.55.55,0,0,1-.37-.34.56.56,0,0,1,.33-.74c1.71-.65,3.55-1.26,5.48-1.79a.56.56,0,0,1,.7.4.57.57,0,0,1-.4.7c-1.89.53-3.7,1.12-5.38,1.76A.63.63,0,0,1,201.2,89.34Z" transform="translate(-67.99 -31.37)"/><path class="cls-30" d="M174.33,179.13a.57.57,0,0,1,.76-.27.57.57,0,0,1,.27.76,31.72,31.72,0,0,1-3,5,.58.58,0,0,1-.63.22.56.56,0,0,1-.17-.09.56.56,0,0,1-.13-.79A31.25,31.25,0,0,0,174.33,179.13Z" transform="translate(-67.99 -31.37)"/><path class="cls-31" d="M176,176.75a.58.58,0,0,1-.36-.73c.17-.48.32-1,.46-1.46a30.75,30.75,0,0,0,.87-4,.56.56,0,0,1,.64-.48.57.57,0,0,1,.49.64,29.69,29.69,0,0,1-.9,4.14c-.15.51-.31,1-.48,1.51a.57.57,0,0,1-.7.36Z" transform="translate(-67.99 -31.37)"/><path class="cls-32" d="M177.77,167.82l-.13,0a.57.57,0,0,1-.42-.57,38.9,38.9,0,0,0-.22-5.62.57.57,0,1,1,1.13-.12,41.17,41.17,0,0,1,.24,5.78A.57.57,0,0,1,177.77,167.82Z" transform="translate(-67.99 -31.37)"/><path class="cls-33" d="M175,116.84c-.24.71-.47,1.43-.68,2.15-.32,1.09-.59,2.19-.82,3.29a.57.57,0,0,1-.68.44h0a.57.57,0,0,1-.4-.66c.24-1.13.52-2.26.84-3.38.22-.74.45-1.47.7-2.2a.54.54,0,0,1,.73-.35A.57.57,0,0,1,175,116.84Z" transform="translate(-67.99 -31.37)"/><path class="cls-34" d="M173,125.62a40.84,40.84,0,0,0-.33,5.62.57.57,0,0,1-.57.57.44.44,0,0,1-.16,0,.56.56,0,0,1-.41-.54,41.6,41.6,0,0,1,.34-5.78.57.57,0,0,1,1.13.15Z" transform="translate(-67.99 -31.37)"/><path class="cls-35" d="M178.8,108.65a46.68,46.68,0,0,0-2.55,5,.56.56,0,0,1-.68.32l-.07,0a.58.58,0,0,1-.3-.75,48,48,0,0,1,2.61-5.16.57.57,0,1,1,1,.57Z" transform="translate(-67.99 -31.37)"/><path class="cls-36" d="M186.41,98.9a.56.56,0,0,1-.55.13.44.44,0,0,1-.25-.15.56.56,0,0,1,0-.8A43.37,43.37,0,0,1,190,94.32a.57.57,0,0,1,.69.91A45,45,0,0,0,186.41,98.9Z" transform="translate(-67.99 -31.37)"/><path class="cls-37" d="M175.26,149.78a.61.61,0,0,1-.3,0,.54.54,0,0,1-.39-.41l-.18-.7c-.4-1.62-.8-3.24-1.16-4.86a.57.57,0,1,1,1.11-.26c.37,1.62.77,3.23,1.16,4.85l.18.7A.58.58,0,0,1,175.26,149.78Z" transform="translate(-67.99 -31.37)"/><path class="cls-38" d="M180.61,105.79a.57.57,0,0,1-.63.23.65.65,0,0,1-.17-.08.57.57,0,0,1-.14-.79,46.37,46.37,0,0,1,3.55-4.56.57.57,0,0,1,.86.76A45.24,45.24,0,0,0,180.61,105.79Z" transform="translate(-67.99 -31.37)"/><path class="cls-39" d="M109.85,226.47a.57.57,0,0,1,.8-.09.56.56,0,0,1,.09.8l-3.57,4.47a.56.56,0,0,1-.6.19.54.54,0,0,1-.2-.1.56.56,0,0,1-.09-.8Z" transform="translate(-67.99 -31.37)"/><path class="cls-40" d="M115.6,219.35a.57.57,0,0,1,.8-.07.56.56,0,0,1,.07.8c-1.22,1.46-2.41,2.95-3.59,4.43a.59.59,0,0,1-.61.19.75.75,0,0,1-.2-.1.58.58,0,0,1-.08-.81C113.17,222.31,114.37,220.82,115.6,219.35Z" transform="translate(-67.99 -31.37)"/><path class="cls-41" d="M121.79,212.55a.58.58,0,0,1,.81,0,.57.57,0,0,1,0,.81c-1.25,1.23-2.53,2.57-3.89,4.12a.58.58,0,0,1-.59.17.53.53,0,0,1-.22-.12.57.57,0,0,1,0-.81C119.23,215.17,120.52,213.8,121.79,212.55Z" transform="translate(-67.99 -31.37)"/><path class="cls-42" d="M104.14,233.62a.57.57,0,0,1,.9.71l-3.57,4.46a.55.55,0,0,1-.8.09.56.56,0,0,1-.09-.8Z" transform="translate(-67.99 -31.37)"/><path class="cls-43" d="M175.8,152a.56.56,0,0,1,.68.43c.51,2.18.88,4,1.17,5.63a.58.58,0,0,1-.47.66.57.57,0,0,1-.26,0,.58.58,0,0,1-.4-.45c-.28-1.63-.65-3.4-1.15-5.56A.57.57,0,0,1,175.8,152Z" transform="translate(-67.99 -31.37)"/><path class="cls-44" d="M128.93,206.7a.57.57,0,1,1,.63,1,43.24,43.24,0,0,0-4.47,3.42.59.59,0,0,1-.54.12.59.59,0,0,1-.27-.18.56.56,0,0,1,.06-.8A45.56,45.56,0,0,1,128.93,206.7Z" transform="translate(-67.99 -31.37)"/><path class="cls-45" d="M94.92,245.17l3.52-4.41a.57.57,0,1,1,.89.71l-3.52,4.42a.59.59,0,0,1-.61.19A.5.5,0,0,1,95,246,.57.57,0,0,1,94.92,245.17Z" transform="translate(-67.99 -31.37)"/><path class="cls-46" d="M162.44,192.24a.57.57,0,0,1,.59,1,45.8,45.8,0,0,1-5.11,2.69.61.61,0,0,1-.4,0,.6.6,0,0,1-.36-.32.57.57,0,0,1,.29-.75A46.25,46.25,0,0,0,162.44,192.24Z" transform="translate(-67.99 -31.37)"/><path class="cls-47" d="M172.2,134.1a.57.57,0,0,1,.62.51c.16,1.73.43,3.57.82,5.6a.58.58,0,0,1-.46.67.57.57,0,0,1-.26,0,.58.58,0,0,1-.41-.44c-.39-2.07-.66-3.93-.83-5.7A.57.57,0,0,1,172.2,134.1Z" transform="translate(-67.99 -31.37)"/><path class="cls-48" d="M137.11,202.41a.57.57,0,0,1,.75.31.56.56,0,0,1-.3.75,53.15,53.15,0,0,0-5.1,2.43.57.57,0,0,1-.44,0,.6.6,0,0,1-.34-.27.57.57,0,0,1,.23-.78A55.19,55.19,0,0,1,137.11,202.41Z" transform="translate(-67.99 -31.37)"/><path class="cls-49" d="M196.15,90.48c.6-.31,1.2-.6,1.81-.88a.57.57,0,0,1,.76.28.58.58,0,0,1-.28.76c-.6.27-1.18.55-1.77.85-1.08.56-2.15,1.17-3.19,1.82a.58.58,0,0,1-.46.07.61.61,0,0,1-.33-.24.57.57,0,0,1,.18-.79C193.93,91.67,195,91.05,196.15,90.48Z" transform="translate(-67.99 -31.37)"/><path class="cls-50" d="M154.32,196.18a.57.57,0,0,1,.42,1.06c-1.93.76-3.89,1.45-5.39,2a.6.6,0,0,1-.35,0,.57.57,0,0,1-.38-.36.58.58,0,0,1,.35-.73C150.46,197.62,152.41,196.93,154.32,196.18Z" transform="translate(-67.99 -31.37)"/><path class="cls-51" d="M145.73,199.24a.58.58,0,0,1,.73.36.57.57,0,0,1-.36.72c-1.64.56-3.54,1.21-5.37,1.9a.63.63,0,0,1-.36,0,.57.57,0,0,1-.38-.35.57.57,0,0,1,.34-.73C142.17,200.46,144.08,199.8,145.73,199.24Z" transform="translate(-67.99 -31.37)"/></svg>